<svg width="30" height="30" viewBox="0 0 30 30" fill="none" xmlns="http://www.w3.org/2000/svg">
<path d="M22.0791 8.75442H7.58273V10.6189H22.0791V8.75442Z" fill="#fff"/>
<path d="M15.3453 12.2969H7.58273V14.1614H15.3453V12.2969Z" fill="#fff"/>
<path d="M11.9784 15.8394H7.58273V17.7039H11.9784V15.8394Z" fill="#fff"/>
<path d="M29 18.9158C29 16.9581 28.0647 15.2801 26.5683 14.2546V7.26284C26.5683 5.49158 25.0719 4 23.295 4H6.27338C4.4964 4 3 5.49158 3 7.26284V21.4329C3 23.2041 4.4964 24.6957 6.27338 24.6957H19.2734V26.5602C19.2734 27.1195 19.554 27.6789 20.1151 27.8653C20.3022 27.9586 20.4892 27.9586 20.5827 27.9586C20.9568 27.9586 21.2374 27.7721 21.518 27.5857L23.1079 26.0009L24.6978 27.5857C25.0719 27.9586 25.6331 28.145 26.1942 27.8653C26.6619 27.6789 27.036 27.1195 27.036 26.5602V23.2974C28.2518 22.1787 29 20.6871 29 18.9158ZM4.8705 21.4329V7.26284C4.8705 6.51705 5.52518 5.86448 6.27338 5.86448H23.3885C24.1367 5.86448 24.7914 6.51705 24.7914 7.26284V13.3224C24.3237 13.136 23.7626 13.136 23.2014 13.136C19.9281 13.136 17.3094 15.7462 17.3094 19.0091C17.3094 20.5006 17.8705 21.899 18.8058 22.9245H6.27338C5.52518 22.8312 4.8705 22.1787 4.8705 21.4329ZM23.3885 22.8312H22.8273C20.7698 22.6448 19.0863 20.9668 19.0863 18.9158C19.0863 16.6785 20.8633 14.9072 23.1079 14.9072C25.3525 14.9072 27.1295 16.6785 27.1295 18.9158C27.1295 21.06 25.446 22.738 23.3885 22.8312Z" fill="#fff"/>
</svg>
