<svg width="30" height="30" viewBox="0 0 30 30" fill="none" xmlns="http://www.w3.org/2000/svg">
<path d="M21.5 18.2H21C22.6 16.7 23.6 14.6 23.6 12.2C23.6 7.7 19.9 4 15.4 4C10.9 4 7.2 7.7 7.2 12.2C7.2 14.6 8.2 16.7 9.8 18.2H9.3C6.4 18.2 4 20.6 4 23.5V25.3C4 25.9 4.5 26.4 5.1 26.4C5.7 26.4 6.2 25.9 6.2 25.3V23.5C6.2 21.8 7.6 20.4 9.3 20.4H21.4C23.1 20.4 24.5 21.8 24.5 23.5V25.3C24.5 25.9 25 26.4 25.6 26.4C26.2 26.4 26.7 25.9 26.7 25.3V23.5C26.8 20.5 24.4 18.2 21.5 18.2ZM9.4 12.1C9.4 8.8 12.1 6.1 15.4 6.1C18.7 6.1 21.4 8.8 21.4 12.1C21.4 15.4 18.7 18.1 15.4 18.1C12.1 18.1 9.4 15.5 9.4 12.1Z" fill="#fff"/>
</svg>
