<svg width="483" height="325" viewBox="0 0 483 325" fill="none" xmlns="http://www.w3.org/2000/svg">
<path d="M375.035 115.815C379.303 115.815 382.763 112.398 382.763 108.184C382.763 103.969 379.303 100.552 375.035 100.552C370.767 100.552 367.307 103.969 367.307 108.184C367.307 112.398 370.767 115.815 375.035 115.815Z" fill="#DBDCE1"/>
<path d="M8.63735 316.92L170.471 78.5566C170.471 78.5566 191.382 67.7831 255.479 167.887C319.576 267.99 300.483 281.906 300.483 281.906L12.7286 323.653C9.09194 324.102 6.36441 320.062 8.63735 316.92Z" fill="#BAD5F7"/>
<path d="M267.752 112.224C267.752 110.877 267.752 109.53 268.662 108.184L278.208 95.1657C280.026 92.9213 283.208 92.0235 285.936 93.8191C288.209 95.6146 289.118 98.7569 287.3 101.45L277.753 114.468C275.935 116.713 272.753 117.61 270.025 115.815C268.662 114.917 267.752 113.57 267.752 112.224Z" fill="#3E4D63"/>
<path d="M297.301 158.46C296.846 155.767 298.664 152.624 301.846 152.175L318.212 149.033C320.939 148.584 324.121 150.38 324.576 153.522C325.03 156.215 323.212 159.358 320.03 159.807L303.665 162.949C302.301 163.398 300.937 162.949 299.574 162.051C298.21 161.153 297.755 160.256 297.301 158.46Z" fill="#3E4D63"/>
<path d="M285.481 136.015C283.663 133.322 284.572 130.18 287.3 128.384L301.392 119.855C304.12 118.508 307.302 118.957 309.12 121.651C310.938 124.344 310.029 127.486 307.302 129.282L293.209 137.811C290.482 139.606 286.845 138.709 285.481 136.015Z" fill="#3E4D63"/>
<path d="M35.458 260.808C34.5488 260.808 33.6396 260.808 33.1851 259.91C31.3667 258.564 30.9121 256.319 31.8213 254.075L41.3676 240.608C42.7314 238.812 45.0043 238.363 47.2773 239.261C49.0956 240.608 49.5502 242.852 48.6411 245.097L39.0947 259.012C38.1855 260.359 36.8218 260.808 35.458 260.808Z" fill="#3E4D63"/>
<path d="M255.479 149.482C192.745 51.174 169.107 56.5608 165.016 58.8053L164.106 59.703L59.5511 213.674C58.1873 215.47 58.6419 218.163 60.9148 219.51C62.7332 220.856 65.4607 220.407 66.8245 218.163L165.016 73.6188C166.379 92.4724 184.563 133.322 212.747 177.314C240.023 219.959 268.662 253.626 285.481 263.501L8.63718 303.453L31.3666 270.235C32.7304 268.439 32.2758 265.746 30.0028 264.399C28.1845 263.053 25.4569 263.501 24.0932 265.746L1.36376 298.964C-0.454588 301.657 -0.454588 305.249 1.36376 307.942C2.72753 310.186 5.45506 311.982 8.18259 311.982C8.63718 311.982 9.09176 311.982 9.54635 311.982L296.846 270.235H297.755L298.664 269.786C303.21 266.644 318.212 247.79 255.479 149.482Z" fill="#3E4D63"/>
<path d="M469.135 152.175L458.679 129.282C458.679 128.833 458.679 128.384 459.134 127.935L478.681 110.877C479.591 110.428 478.681 109.082 477.772 109.082L451.861 112.224C451.406 112.224 450.951 112.224 450.951 111.775L440.496 88.8812C440.041 87.9834 438.678 87.9834 438.678 88.8812L432.313 114.019C432.313 114.468 431.859 114.917 431.404 114.917L403.22 118.508C402.311 118.508 401.856 119.855 402.765 120.304L426.858 132.424C427.313 132.424 427.313 133.322 427.313 133.771L420.494 159.807C420.039 160.704 421.403 161.602 422.312 160.704L443.678 141.851C444.133 141.402 444.587 141.402 445.042 141.851L468.226 153.971C468.68 153.971 469.59 153.073 469.135 152.175Z" fill="#BAD5F7"/>
<path d="M423.222 155.318C422.767 155.318 421.858 155.318 421.403 154.869C420.039 153.971 419.585 152.624 420.039 151.278L426.404 126.139L403.22 114.468C401.856 114.019 401.401 112.673 401.401 111.326C401.856 109.979 402.765 109.081 404.129 108.633L431.404 105.49L437.314 81.25C437.768 79.9033 438.678 79.0055 440.041 79.0055C441.405 79.0055 442.769 79.4544 443.223 80.8011L453.224 102.797L461.407 101.899C462.316 101.899 463.68 102.797 463.68 103.695C463.68 105.041 462.771 105.939 461.862 105.939L453.224 106.837C451.861 106.837 450.497 106.388 450.042 105.041L441.405 85.2901L435.95 107.286C435.495 108.633 434.586 109.53 433.223 109.53L408.675 112.224L429.586 122.548C430.95 123.446 431.404 124.793 431.404 126.139L425.495 148.584L444.133 132.424C445.042 131.526 446.406 131.526 447.769 131.975L467.771 142.3L458.679 122.099C458.225 120.753 458.225 119.406 459.589 118.508L479.136 101.45C480.045 100.552 481.409 100.552 482.318 101.45C483.227 102.348 483.227 103.695 482.318 104.593L463.68 121.202L473.681 143.198C474.135 144.544 474.135 145.891 472.772 146.789C471.863 147.686 470.499 147.686 469.135 147.238L445.951 136.464L425.495 154.42C425.04 154.869 424.131 155.318 423.222 155.318Z" fill="#3E4D63"/>
<path d="M224.112 58.8052L225.021 47.134C225.021 47.134 225.021 46.6851 225.476 46.6851L236.841 43.5428C237.295 43.5428 237.295 42.645 236.841 42.645L225.476 38.1561L225.021 37.7072L225.93 26.0359C225.93 25.587 225.476 25.1381 225.021 25.587L216.839 34.5649H216.384L204.11 30.076C203.656 30.076 203.201 30.5249 203.656 30.9738L210.929 41.2983V41.7472L202.292 51.174C201.837 51.6229 202.292 52.0718 202.746 52.0718L215.475 48.9296H215.929L222.748 58.8052C223.657 59.2541 224.112 59.2541 224.112 58.8052Z" fill="#3E4D63"/>
<path d="M355.943 202.003L360.489 191.229L360.943 190.78L373.217 192.127C373.672 192.127 374.126 191.678 373.672 191.229L364.58 183.598V183.149L369.126 172.376C369.126 171.927 368.671 171.478 368.671 171.927L358.216 177.762H357.761L347.76 169.233C347.306 168.785 346.851 169.233 346.851 169.682L350.033 181.802C350.033 181.802 350.033 182.251 349.578 182.251L338.214 188.087C337.759 188.087 337.759 188.985 338.214 188.985L351.397 190.331C351.397 190.331 351.851 190.331 351.851 190.78L355.033 202.003C355.033 202.452 355.943 202.452 355.943 202.003Z" fill="#BAD5F7"/>
<path d="M225.93 168.336L228.658 157.113C228.658 157.113 228.658 156.664 229.113 156.664L241.386 155.767C241.841 155.767 241.841 155.318 241.386 154.869L230.931 148.584C230.931 148.584 230.476 148.135 230.931 148.135L233.658 136.913C233.658 136.464 233.204 136.015 232.749 136.464L223.657 143.646H223.203L211.838 136.913C211.384 136.464 210.929 136.913 210.929 137.362L216.384 148.584V149.033L206.383 157.113C205.929 157.562 206.383 158.011 206.838 158.011L220.021 157.113C220.021 157.113 220.475 157.113 220.475 157.562L225.476 168.336C225.476 168.785 225.93 168.785 225.93 168.336Z" fill="#BAD5F7"/>
<path d="M403.22 47.134L407.766 36.3605L408.22 35.9116L420.494 37.2583C420.949 37.2583 421.403 36.8094 420.949 36.3605L411.857 28.7293V28.2804L416.403 17.5069C416.403 17.058 415.948 16.6091 415.948 17.058L405.038 22.4448H404.584L394.583 13.9158C394.128 13.4669 393.673 13.9158 393.673 14.3646L396.856 26.4848C396.856 26.4848 396.856 26.9337 396.401 26.9337L385.036 32.7693C384.582 32.7693 384.582 33.6671 385.036 33.6671L398.219 35.0138C398.219 35.0138 398.674 35.0138 398.674 35.4627L401.856 47.134C402.311 47.5829 403.22 47.5829 403.22 47.134Z" fill="#BAD5F7"/>
<path d="M363.216 58.8052L342.305 47.134C341.85 47.134 341.85 46.6851 341.85 46.2362L346.851 22.8936C346.851 21.9959 345.942 21.547 345.032 21.9959L327.303 38.605C326.849 39.0539 326.394 39.0539 326.394 38.605L305.483 26.9337C304.574 26.4848 303.665 27.3826 304.119 28.2804L313.666 50.2762C313.666 50.7251 313.666 51.174 313.211 51.174L293.664 69.1298C292.755 69.5787 293.664 70.9254 294.573 70.9254L319.575 66.8854C320.03 66.8854 320.485 66.8854 320.485 67.3343L330.031 90.6768C330.486 91.5746 331.849 91.5746 331.849 90.6768L337.304 65.0898C337.304 64.6409 337.759 64.192 338.214 64.192L362.307 60.6008C363.671 60.6008 363.671 59.2541 363.216 58.8052Z" fill="#BAD5F7"/>
<path d="M329.122 88.4323C327.758 88.4323 326.849 87.5345 326.394 86.6367L317.303 64.192L293.209 68.232C291.846 68.6809 290.482 67.7831 290.027 66.4365C289.573 65.0898 289.573 63.7431 290.482 62.8453L309.12 45.3384L300.028 23.7914C299.574 22.4448 300.028 21.0981 300.937 20.2003C301.847 19.3025 303.21 19.3025 304.574 19.7514L324.576 30.9738L341.85 15.2624C342.76 14.3646 344.123 14.3646 345.487 14.8135C346.851 15.2624 347.305 16.6091 346.851 17.9558L341.85 40.8494L361.852 52.0718C363.216 52.5207 363.671 53.8674 363.216 55.2141C362.761 56.5608 361.852 57.4586 360.489 57.4586L337.305 60.6008L331.849 85.2901C331.849 87.0856 330.486 87.9834 329.122 88.4323ZM317.757 59.703C319.121 59.703 320.03 60.6008 320.485 61.4986L328.667 81.25L333.668 59.2541C334.122 57.9075 335.032 57.0097 336.395 57.0097L357.306 53.8674L339.577 43.9917C338.214 43.5428 337.759 42.1961 338.214 40.8494L342.76 21.0981L327.758 35.0138C325.94 35.4627 324.121 35.9116 323.212 35.0138L305.483 25.1381L313.666 43.9917C314.121 45.3384 313.666 46.6851 312.757 47.5829L295.937 62.8453L317.303 59.2541C317.303 59.703 317.757 59.703 317.757 59.703Z" fill="#3E4D63"/>
<path d="M420.949 215.919L414.584 212.327C414.584 212.327 414.584 212.327 414.584 211.878L415.948 204.696C415.948 204.247 415.494 204.247 415.494 204.247L410.039 209.185H409.584L404.129 206.492C403.674 206.492 403.674 206.492 403.674 206.941L406.402 213.674V214.123L400.492 219.061C400.492 219.061 400.492 219.51 400.947 219.51L408.22 218.163H408.675L411.402 224.896C411.402 225.345 411.857 225.345 411.857 224.896L413.675 217.265C413.675 217.265 413.675 217.265 414.13 217.265L420.949 215.919C421.403 216.816 421.403 216.367 420.949 215.919Z" fill="#3E4D63"/>
<path d="M336.395 284.599C335.941 284.599 335.486 284.599 334.577 284.599C332.759 284.151 330.94 282.804 330.031 281.457C329.122 279.662 328.667 277.866 329.122 275.622C329.577 273.826 330.94 272.03 332.304 271.133C334.122 270.235 335.941 269.786 338.214 270.235C340.032 270.684 341.85 272.03 342.76 273.377C345.033 276.968 344.123 281.457 340.487 283.702C339.123 284.151 337.759 284.599 336.395 284.599ZM336.395 273.826C335.941 273.826 335.032 273.826 334.577 274.275C333.668 274.724 333.213 275.622 333.213 276.07C333.213 276.968 333.213 277.866 333.668 278.315C334.122 279.213 335.032 279.662 335.486 279.662C336.395 279.662 337.305 279.662 337.759 279.213C338.668 278.764 339.123 277.866 339.123 277.417C339.123 276.519 339.123 275.622 338.668 275.173C338.214 274.275 337.305 273.826 336.395 273.826C336.85 273.826 336.85 273.826 336.395 273.826Z" fill="#3E4D63"/>
<path d="M316.394 222.652C320.662 222.652 324.122 219.235 324.122 215.021C324.122 210.806 320.662 207.389 316.394 207.389C312.125 207.389 308.666 210.806 308.666 215.021C308.666 219.235 312.125 222.652 316.394 222.652Z" fill="#DBDCE1"/>
<path d="M265.934 234.772C270.202 234.772 273.662 231.355 273.662 227.141C273.662 222.926 270.202 219.51 265.934 219.51C261.666 219.51 258.206 222.926 258.206 227.141C258.206 231.355 261.666 234.772 265.934 234.772Z" fill="white"/>
<path d="M191.382 90.6768C194.394 90.6768 196.837 88.2651 196.837 85.2901C196.837 82.315 194.394 79.9033 191.382 79.9033C188.369 79.9033 185.927 82.315 185.927 85.2901C185.927 88.2651 188.369 90.6768 191.382 90.6768Z" fill="white"/>
<path d="M251.387 70.9254C255.906 70.9254 259.57 67.3078 259.57 62.8453C259.57 58.3828 255.906 54.7652 251.387 54.7652C246.868 54.7652 243.205 58.3828 243.205 62.8453C243.205 67.3078 246.868 70.9254 251.387 70.9254Z" fill="#DBDCE1"/>
<path d="M399.583 81.25C402.596 81.25 405.038 78.8383 405.038 75.8632C405.038 72.8882 402.596 70.4765 399.583 70.4765C396.57 70.4765 394.128 72.8882 394.128 75.8632C394.128 78.8383 396.57 81.25 399.583 81.25Z" fill="#DBDCE1"/>
<path d="M185.927 20.2003C187.935 20.2003 189.563 18.5925 189.563 16.6091C189.563 14.6258 187.935 13.018 185.927 13.018C183.918 13.018 182.29 14.6258 182.29 16.6091C182.29 18.5925 183.918 20.2003 185.927 20.2003Z" fill="#DBDCE1"/>
<path d="M147.741 45.7873C149.75 45.7873 151.378 44.1795 151.378 42.1961C151.378 40.2128 149.75 38.605 147.741 38.605C145.733 38.605 144.104 40.2128 144.104 42.1961C144.104 44.1795 145.733 45.7873 147.741 45.7873Z" fill="#DBDCE1"/>
<path d="M398.674 175.518C402.942 175.518 406.402 172.101 406.402 167.887C406.402 163.672 402.942 160.256 398.674 160.256C394.406 160.256 390.946 163.672 390.946 167.887C390.946 172.101 394.406 175.518 398.674 175.518Z" fill="#DBDCE1"/>
<path d="M403.22 178.66C401.401 178.66 399.583 178.211 398.219 177.314C393.673 174.62 392.31 168.336 395.037 163.847C397.765 159.358 404.129 158.011 408.675 160.704C413.221 163.398 414.584 169.682 411.857 174.171C409.584 176.865 406.402 178.66 403.22 178.66ZM403.22 163.398C401.401 163.398 399.583 164.296 398.674 166.091C397.31 168.785 397.765 171.927 400.492 173.722C401.856 174.62 403.22 174.62 404.584 174.171C405.947 173.722 407.311 172.825 408.22 171.478C409.584 168.785 409.129 165.642 406.402 163.847C405.038 163.847 404.129 163.398 403.22 163.398Z" fill="#3E4D63"/>
<path d="M262.297 0L274.117 1.79558C275.48 1.79558 275.935 3.14227 275.026 4.48895L264.116 19.3025C263.207 20.6492 261.388 19.7514 260.934 18.4047L260.024 1.79558C260.479 0.89779 261.388 0 262.297 0Z" fill="#DBDCE1"/>
<path d="M362.307 242.852L359.125 249.586C358.67 250.483 357.761 250.483 357.306 249.586L350.033 240.159C349.578 239.261 350.033 238.363 350.942 238.363L361.398 241.057C361.852 241.506 362.307 241.954 362.307 242.852Z" fill="#DBDCE1"/>
<path d="M349.578 127.486L350.033 135.117C350.033 136.015 349.124 136.464 348.669 136.015L337.759 131.077C336.85 130.628 336.85 129.282 337.759 129.282L348.215 126.588C348.669 126.14 349.578 126.588 349.578 127.486Z" fill="#DBDCE1"/>
<path d="M123.193 302.106L289.573 281.906C290.482 281.906 291.846 282.355 291.846 283.702C291.846 284.599 291.391 285.946 290.027 285.946L124.102 310.635C121.83 311.084 119.557 309.289 119.557 307.044C119.102 304.8 120.466 302.555 123.193 302.106C123.193 302.106 122.739 302.106 123.193 302.106Z" fill="#3E4D63"/>
<path d="M85.9173 315.573C84.0989 315.573 82.2806 314.227 81.826 311.982C81.3714 309.738 83.1897 307.493 85.4627 307.493L99.1003 305.698C101.373 305.249 103.646 307.044 103.646 309.289C104.101 311.533 102.282 313.778 100.01 313.778L86.3719 315.573C86.3719 315.573 86.3719 315.573 85.9173 315.573Z" fill="#3E4D63"/>
<path d="M15.9104 325C14.0921 325 12.2737 323.653 11.8191 321.409C11.3646 319.164 13.1829 316.92 15.4559 316.92L40.9128 313.329C43.1857 312.88 45.4587 314.675 45.4587 316.92C45.9133 319.164 44.0949 321.409 41.822 321.409L15.9104 325Z" fill="#3E4D63"/>
<path d="M115.465 187.638C114.556 187.638 113.192 187.189 112.283 186.74C110.01 184.945 109.101 181.802 110.919 179.558L153.196 119.406C155.015 117.162 158.197 116.264 160.47 118.059C162.743 119.855 163.652 122.997 161.833 125.242L119.557 185.394C119.102 186.74 117.284 187.638 115.465 187.638Z" fill="white"/>
<path d="M96.3726 215.021C95.4634 215.021 94.0996 214.572 93.1905 214.123C90.9175 212.327 90.0083 209.185 91.8267 206.941L99.5547 196.167C101.373 193.923 104.555 193.025 106.828 194.82C109.101 196.616 110.01 199.758 108.192 202.003L100.464 212.776C100.009 214.123 98.1909 215.021 96.3726 215.021Z" fill="white"/>
</svg>
