<svg width="27" height="27" viewBox="0 0 27 27" fill="none" xmlns="http://www.w3.org/2000/svg">
<path d="M13.5 20.5506C17.3939 20.5506 20.5506 17.3939 20.5506 13.5C20.5506 9.60606 17.3939 6.4494 13.5 6.4494C9.60606 6.4494 6.4494 9.60606 6.4494 13.5C6.4494 17.3939 9.60606 20.5506 13.5 20.5506Z" fill="black"/>
<path d="M13.2363 3.4541L12.4031 1.78242C11.9918 0.959766 12.5877 0 13.5 0C14.4123 0 15.0082 0.959766 14.6021 1.78242L13.7636 3.4541C13.6529 3.67031 13.347 3.67031 13.2363 3.4541Z" fill="black"/>
<path d="M20.4188 6.20684L21.0094 4.43497C21.2994 3.57012 22.4016 3.30645 23.0449 3.95508C23.6936 4.60372 23.4299 5.70059 22.565 5.99063L20.7932 6.58126C20.5611 6.66036 20.3396 6.43887 20.4188 6.20684Z" fill="black"/>
<path d="M23.5459 13.2363L25.2176 12.4031C26.0349 11.9918 27 12.5877 27 13.5053C27 14.4176 26.0402 15.0135 25.2176 14.6074L23.5459 13.7637C23.3297 13.6529 23.3297 13.3471 23.5459 13.2363Z" fill="black"/>
<path d="M20.7932 20.4188L22.565 21.0094C23.4299 21.2994 23.6936 22.4016 23.0449 23.0449C22.3963 23.6936 21.2994 23.4299 21.0094 22.565L20.4188 20.7932C20.3396 20.5611 20.5611 20.3396 20.7932 20.4188Z" fill="black"/>
<path d="M13.7637 23.5459L14.5969 25.2176C15.0082 26.0349 14.4123 27 13.4947 27C12.5824 27 11.9865 26.0402 12.3926 25.2176L13.2258 23.5459C13.3471 23.3297 13.6529 23.3297 13.7637 23.5459Z" fill="black"/>
<path d="M6.58123 20.7932L5.9906 22.565C5.70056 23.4299 4.59841 23.6936 3.95505 23.0449C3.30642 22.3963 3.57009 21.2994 4.43494 21.0094L6.20681 20.4188C6.43884 20.3396 6.66033 20.5611 6.58123 20.7932Z" fill="black"/>
<path d="M3.4541 13.7637L1.78242 14.5969C0.959766 15.0082 0 14.4123 0 13.5C0 12.5877 0.959766 11.9918 1.78242 12.3979L3.4541 13.2363C3.67031 13.3471 3.67031 13.6529 3.4541 13.7637Z" fill="black"/>
<path d="M6.20683 6.58126L4.43495 5.99063C3.56484 5.70059 3.30644 4.59844 3.95507 3.95508C4.6037 3.30645 5.70058 3.57012 5.99062 4.43497L6.58124 6.20684C6.66034 6.43887 6.43886 6.66036 6.20683 6.58126Z" fill="black"/>
</svg>
