<svg width="257" height="32" viewBox="0 0 257 32" fill="none" xmlns="http://www.w3.org/2000/svg">
<path d="M26.067 0.0390625H12.3724C11.5455 0.0406003 10.7214 0.134507 9.9154 0.319037C7.9201 0.79365 6.08135 1.77595 4.57756 3.17063C3.07378 4.56531 1.95602 6.32501 1.33275 8.27899C1.08069 9.07082 0.918759 9.88856 0.850032 10.7167L0.0342454 21.2978C-0.0298351 22.0914 -0.00392559 22.8898 0.11148 23.6776V23.7355C0.43887 25.8682 1.46578 27.8317 3.03075 29.3171C4.59572 30.8026 6.61 31.7258 8.75689 31.9416C9.1241 31.9802 9.49308 31.9995 9.86231 31.9996H17.214C20.4155 31.58 23.332 29.9428 25.3574 27.4283C26.5301 25.9966 27.427 24.3599 28.0027 22.6011H11.2767C11.0282 22.6048 10.7817 22.5562 10.5531 22.4587C10.3246 22.3611 10.119 22.2166 9.94981 22.0347C9.78057 21.8527 9.65139 21.6372 9.57063 21.4022C9.48987 21.1672 9.45932 20.9178 9.48096 20.6703L10.205 11.4215C10.2571 10.898 10.4998 10.412 10.887 10.056C11.2743 9.69991 11.7789 9.49868 12.3048 9.49061H29.0647C29.3136 9.48628 29.5606 9.53431 29.7897 9.63158C30.0188 9.72885 30.225 9.87319 30.3947 10.0552C30.5645 10.2373 30.6941 10.453 30.7752 10.6884C30.8562 10.9237 30.8869 11.1735 30.8652 11.4215L30.1604 20.3903C30.1604 20.3903 29.9915 21.3316 29.9625 21.4571C29.365 23.9856 28.2106 26.3488 26.5835 28.3744C25.3804 29.8429 23.9053 31.0656 22.2391 31.9754H27.9979C28.3703 31.9753 28.7425 31.9559 29.1129 31.9175C29.5499 31.8703 29.9836 31.7962 30.4114 31.6955C32.4075 31.2208 34.2468 30.238 35.7507 28.8423C37.2546 27.4467 38.372 25.6858 38.9941 23.7307C39.0858 23.441 39.1631 23.1466 39.2258 22.857C39.343 22.3438 39.4221 21.8226 39.4623 21.2978L41.1277 0.0583711L26.067 0.0390625Z" fill="#58B947"/>
<path d="M123.441 28.3066L120.434 19.3861L117.905 11.8702L116.65 8.13401L114.149 0.705041C113.077 1.2201 112.075 1.86888 111.166 2.6359C109.255 4.26549 107.764 6.33199 106.822 8.66017C106.822 8.69879 106.764 8.7905 106.749 8.82912L106.933 9.41803L107.927 12.3674H104.152C104.471 10.3448 105.692 5.2329 110.191 1.43394C110.799 0.917785 111.445 0.446694 112.122 0.0244141H100.054L99.7691 0.603671L96.0619 8.13401L94.2179 11.8702L90.5107 19.3861L84.9595 30.6768L84.3223 31.9753H91.7609C92.5887 31.9578 93.3957 31.7125 94.0931 31.2662C94.7906 30.82 95.3515 30.1901 95.7143 29.4458L100.324 20.0957L100.43 19.8881H110.437L110.51 20.0957L114.308 31.3767L114.506 31.9559H120.704C121.144 31.9469 121.576 31.838 121.967 31.6373C122.358 31.4367 122.698 31.1497 122.962 30.7981C123.226 30.4464 123.406 30.0393 123.489 29.6076C123.572 29.176 123.556 28.7311 123.441 28.3066Z" fill="#58B947"/>
<path d="M82.0905 15.9878C82.8326 14.9527 83.3926 13.7985 83.7462 12.575C83.9488 11.8707 84.0798 11.1478 84.1372 10.4172C84.1946 9.69812 84.1769 8.97495 84.0841 8.25952C83.792 5.97874 82.6802 3.88209 80.9561 2.36075C79.1731 0.821413 76.8915 -0.017479 74.536 0.000276175H45.409L44.5691 10.7648H53.0214L53.2048 8.4526H73.8554C74.1075 8.44869 74.3577 8.49808 74.5894 8.59754C74.8212 8.697 75.0293 8.84428 75.2002 9.02975C75.3711 9.21522 75.5009 9.43469 75.5811 9.6738C75.6612 9.9129 75.69 10.1662 75.6655 10.4172C75.6327 10.7737 75.5118 11.1164 75.3138 11.4147C75.1158 11.7129 74.8469 11.9574 74.5311 12.1261C74.2359 12.2909 73.9039 12.3789 73.5657 12.3819H44.4436L43.3092 26.8633C43.2452 27.5197 43.3206 28.1823 43.5305 28.8076C43.7403 29.4328 44.0799 30.0067 44.527 30.4916C44.9741 30.9765 45.5185 31.3615 46.1247 31.6213C46.7309 31.8811 47.3852 32.01 48.0446 31.9994H52.3022V31.9608H64.6838C66.8423 31.1608 68.7439 29.7913 70.1867 27.9977C71.2919 26.6534 72.1529 25.1259 72.7306 23.4843H52.027L52.307 19.8978H74.0291C74.2993 20.0755 74.5158 20.3237 74.6553 20.6155C74.7948 20.9072 74.852 21.2316 74.8208 21.5535C74.8103 21.7065 74.7795 21.8575 74.7291 22.0024C74.211 24.5603 73.0703 26.9511 71.408 28.9631C70.4674 30.112 69.3592 31.1128 68.1207 31.9318H71.128C71.4273 31.9318 71.7314 31.9704 72.0355 31.9704C72.3396 31.9704 72.6727 31.9704 73.0009 31.927C75.2902 31.7113 77.4576 30.7961 79.2087 29.3058C80.3728 28.3521 81.333 27.1737 82.0321 25.841C82.7312 24.5083 83.1549 23.0485 83.2779 21.5486C83.3287 20.9431 83.3287 20.3344 83.2779 19.7288C83.1412 18.4139 82.7371 17.1408 82.0905 15.9878Z" fill="#58B947"/>
<path d="M166.575 15.9877C167.317 14.9527 167.877 13.7985 168.231 12.575C168.435 11.8709 168.567 11.148 168.626 10.4172C168.68 9.69787 168.66 8.97494 168.568 8.25949C168.276 5.97872 167.165 3.88207 165.44 2.36073C163.659 0.822105 161.379 -0.0167691 159.025 0.000254088H129.898L129.053 10.7648H137.506L137.689 8.45258H158.364C158.616 8.44935 158.865 8.49925 159.096 8.59901C159.328 8.69877 159.535 8.84616 159.705 9.03155C159.876 9.21695 160.005 9.43618 160.085 9.67494C160.165 9.9137 160.194 10.1666 160.169 10.4172C160.137 10.7733 160.017 11.1159 159.82 11.4142C159.623 11.7125 159.355 11.9571 159.04 12.126C158.744 12.2895 158.412 12.3774 158.074 12.3819H128.928L127.794 26.8633C127.73 27.5197 127.805 28.1823 128.015 28.8075C128.225 29.4328 128.564 30.0067 129.011 30.4916C129.458 30.9765 130.003 31.3614 130.609 31.6213C131.215 31.8811 131.87 32.01 132.529 31.9994H136.787V31.9608H149.159C151.322 31.1626 153.229 29.7931 154.676 27.9977C155.779 26.6522 156.64 25.125 157.22 23.4843H136.511L136.791 19.8977H158.514C158.781 20.0778 158.994 20.3267 159.132 20.6181C159.27 20.9095 159.326 21.2326 159.296 21.5534C159.281 21.7064 159.249 21.8571 159.199 22.0024C158.69 24.556 157.563 26.946 155.917 28.9631C154.973 30.1111 153.864 31.1117 152.624 31.9318H155.637C155.931 31.9318 156.235 31.9704 156.539 31.9704C156.843 31.9704 157.176 31.9704 157.505 31.927C159.794 31.7113 161.961 30.7961 163.712 29.3058C165.472 27.8316 166.747 25.862 167.371 23.6532C167.568 22.9611 167.695 22.2513 167.753 21.5341C167.806 20.9287 167.806 20.3197 167.753 19.7143C167.617 18.4051 167.216 17.1371 166.575 15.9877Z" fill="#FDB92A"/>
<path d="M230.737 10.7643L229.076 31.9748H232.697C234.266 31.9487 235.77 31.3423 236.919 30.2727C238.068 29.2031 238.781 27.7459 238.919 26.1822L240.126 10.7354L230.737 10.7643Z" fill="#FDB92A"/>
<path d="M216.56 0.0390625L215.826 9.43268H230.11H230.853H240.247H241.357H255.274L256.012 0.0390625H216.56Z" fill="#FDB92A"/>
<path d="M173.473 0.0390625L172.633 10.765H182.026L182.133 9.43268H212.186L212.925 0.0390625H173.473Z" fill="#FDB92A"/>
<path d="M181.901 12.3816H172.508L170.973 31.975H204.671C206.241 31.9499 207.746 31.344 208.895 30.2741C210.044 29.2043 210.756 27.7465 210.893 26.1824L211.106 23.4647H181.018L181.293 19.9361H211.352L211.941 12.3623H181.901V12.3816Z" fill="#FDB92A"/>
</svg>
