<svg viewBox="0 0 109 53" fill="none" xmlns="http://www.w3.org/2000/svg">
    <path fill-rule="evenodd" clip-rule="evenodd" d="M41.5 0H75.8L74.7 5.4H40.4L41.5 0Z"
        fill="white" />
    <path fill-rule="evenodd" clip-rule="evenodd" d="M39.7 8.2H74L72.9 13.6H38.6L39.7 8.2Z"
        fill="white" />
    <path fill-rule="evenodd" clip-rule="evenodd" d="M33.4 39H67.7L66.6 44.3H32.3L33.4 39Z"
        fill="white" />
    <path fill-rule="evenodd" clip-rule="evenodd" d="M31.7 47.1H66L64.9 52.5H30.6L31.7 47.1Z"
        fill="white" />
    <path fill-rule="evenodd" clip-rule="evenodd"
        d="M91.1 35.4L94.9 17.4H108.4L107.7 20.8H99.1L98.3 24.6H106.4L105.7 28H97.6L96.8 31.8H105.6L104.9 35.3H91.1V35.4ZM77.6 28.4H82.5L81.8 20.8H81.7L77.6 28.4ZM68.8 35.4L79.7 17.4H85.8L89.1 35.4H83.5L83 31.8H75.8L73.8 35.4H68.8ZM60.3 20.7L59.4 25.1H61.3C62.4 25.1 63.1 25 63.4 25C64.3 24.7 64.9 24 65.1 23C65.1 22.8 65.2 22.6 65.2 22.4C65.2 21.7 64.9 21.2 64.2 21C63.8 20.9 63.1 20.8 62.2 20.8L60.3 20.7ZM52.2 35.4L56 17.4H64.3C65.7 17.4 66.7 17.4 67.1 17.5C68.2 17.7 69 18.1 69.5 18.7C69.9 19.3 70.2 20 70.2 20.8C70.2 21.2 70.2 21.7 70.1 22.2C69.8 23.7 69 24.9 67.7 25.5C66.9 25.9 65.9 26.3 64.8 26.4V26.5C66.1 26.5 67 26.8 67.4 27.3C67.8 27.7 68 28.4 68 29.3C68 29.6 68 30.2 67.9 30.9C67.8 33.1 67.7 34.6 67.8 35.3H62.4C62.4 34.6 62.5 33.3 62.7 31.2C62.8 30.5 62.8 30 62.8 29.7C62.8 29.2 62.7 28.8 62.4 28.5C62.1 28.3 61.6 28.2 60.8 28.2H58.7L57.2 35.2H52.2V35.4ZM40.5 27.8L39.6 32.1H42.4C44.1 32.1 45.1 31.4 45.4 30C45.4 29.8 45.5 29.6 45.5 29.4C45.5 28.4 44.7 27.8 43.2 27.8H40.5ZM42.1 20.6L41.3 24.6H43.6C44.5 24.6 45.1 24.5 45.4 24.4C46.1 24.1 46.5 23.5 46.7 22.7C46.8 22 46.7 21.5 46.4 21.1C46.1 20.8 45.6 20.7 44.9 20.7L42.1 20.6ZM34.1 35.4L37.9 17.4H45.1C46.6 17.4 47.7 17.5 48.4 17.6C49.5 17.8 50.4 18.2 51 18.9C51.5 19.5 51.8 20.2 51.8 21.1C51.8 21.4 51.8 21.7 51.7 22C51.3 24.1 49.7 25.4 47 26.1C49.3 26.5 50.5 27.6 50.5 29.4C50.5 30.5 50.2 31.6 49.6 32.5C49 33.4 48.1 34.1 47.1 34.6C46 35.1 44.4 35.3 42.1 35.3H34.1V35.4ZM17.6 35.4L21.4 17.4H35L34.3 20.8H25.7L24.9 24.5H33L32.2 28H24.1L23.3 31.8H32.1L31.4 35.3H17.6V35.4ZM0.2 29.6H5.2C5.1 29.9 5.1 30.2 5.1 30.4C5.1 31.7 5.9 32.4 7.6 32.4C9.4 32.4 10.4 31.7 10.7 30.4C10.7 30.2 10.7 30.1 10.7 29.9C10.7 29.3 10.3 28.9 9.5 28.6L5.3 27.6C2.9 27 1.8 25.7 1.8 23.8C1.8 23.4 1.8 23 1.9 22.6C2.2 21 3.1 19.7 4.5 18.7C6.1 17.6 8.1 17 10.7 17C14.9 17 17 18.4 17 21.1C17 21.5 16.9 22.1 16.8 22.7H11.7C11.8 22.4 11.8 22.1 11.8 21.9C11.8 20.8 11.2 20.3 9.9 20.3C9.2 20.3 8.6 20.5 8.1 20.8C7.6 21.2 7.3 21.6 7.2 22.2C7.2 22.3 7.2 22.5 7.2 22.6C7.2 23.3 7.7 23.8 8.7 24L11.9 24.9C13.3 25.3 14.2 25.7 14.8 26C15.7 26.6 16.2 27.5 16.2 28.7C16.2 29.1 16.1 29.5 16.1 30C15.7 31.9 14.6 33.4 12.9 34.4C11.3 35.3 9.3 35.8 6.9 35.8C3.8 35.8 1.8 35.1 0.8 33.7C0.2 33.1 0 32.2 0 31.3C0 30.8 0.1 30.3 0.2 29.6Z"
        fill="white" />
</svg>