<svg width="30" height="30" viewBox="0 0 30 30" fill="none" xmlns="http://www.w3.org/2000/svg">
<path d="M22.7 4H7.5C5.6 4 4 5.6 4 7.5V22.7C4 24.6 5.6 26.2 7.5 26.2H22.7C24.6 26.2 26.2 24.6 26.2 22.7V7.5C26.2 5.6 24.6 4 22.7 4ZM7.59999 6H22.8C23.6 6 24.3 6.7 24.3 7.5V9.1H6.09999V7.5C6.09999 6.7 6.69999 6 7.59999 6ZM22.7 24.2H7.5C6.7 24.2 6 23.5 6 22.7V11.1H24.2V22.6C24.2 23.5 23.5 24.2 22.7 24.2Z" fill="#fff"/>
<path d="M11.4 13.7H8.89999V16.2H11.4V13.7Z" fill="#fff"/>
<path d="M16.4 13.7H13.9V16.2H16.4V13.7Z" fill="#fff"/>
<path d="M21.4 13.7H18.9V16.2H21.4V13.7Z" fill="#fff"/>
<path d="M11.4 18.6H8.89999V21.1H11.4V18.6Z" fill="#fff"/>
<path d="M16.4 18.6H13.9V21.1H16.4V18.6Z" fill="#fff"/>
<path d="M21.4 18.6H18.9V21.1H21.4V18.6Z" fill="#fff"/>
</svg>
