<svg width="30" height="30" viewBox="0 0 30 30" fill="none" xmlns="http://www.w3.org/2000/svg">
<path d="M22.3 19H7.80002V21H22.3V19Z" fill="#fff"/>
<path d="M15.1 15.3H7.80002V17.3H15.1V15.3Z" fill="#fff"/>
<path d="M27.2 8.4V7.5C27.2 5.6 25.6 4 23.7 4H6.5C4.6 4 3 5.6 3 7.5V22.7C3 24.6 4.6 26.2 6.5 26.2H23.7C25.6 26.2 27.2 24.6 27.2 22.7V16.5C28.4 15.6 29.2 14.1 29.2 12.5C29.2 10.9 28.4 9.4 27.2 8.4ZM25.2 22.7C25.2 23.5 24.5 24.2 23.7 24.2H6.5C5.7 24.2 5 23.5 5 22.7V7.5C5 6.7 5.7 6 6.5 6H23.7C24.5 6 25.2 6.7 25.2 7.5C24.9 7.4 24.5 7.4 24.1 7.4C21.3 7.4 19 9.7 19 12.5C19 15.3 21.3 17.6 24.1 17.6C24.5 17.6 24.8 17.6 25.2 17.5V22.7ZM26.8 11.5L24 14.4C23.9 14.5 23.7 14.6 23.5 14.6C23.3 14.6 23.1 14.5 23 14.4L21.5 12.9C21.2 12.6 21.2 12.1 21.5 11.8C21.8 11.5 22.3 11.5 22.6 11.8L23.6 12.7L25.8 10.3C26.1 10 26.6 10 26.9 10.3C27.1 10.8 27.1 11.2 26.8 11.5Z" fill="#fff"/>
</svg>
