<svg width="30" height="30" viewBox="0 0 30 30" fill="none" xmlns="http://www.w3.org/2000/svg">
<path d="M11.4 11.6H8.89999V14.1H11.4V11.6Z" fill="#fff"/>
<path d="M16.4 11.6H13.9V14.1H16.4V11.6Z" fill="#fff"/>
<path d="M21.3 11.6H18.8V14.1H21.3V11.6Z" fill="#fff"/>
<path d="M22.7 4H7.5C5.6 4 4 5.6 4 7.5V18.1C4 20 5.6 21.6 7.5 21.6H14.7C14.9 21.6 15.1 21.7 15.3 21.9L18.9 25.5C19.3 25.9 19.8 26.1 20.3 26.1C20.6 26.1 20.8 26.1 21.1 25.9C21.8 25.6 22.3 24.9 22.3 24.1V21.6H22.7C24.6 21.6 26.2 20 26.2 18.1V7.5C26.2 5.6 24.6 4 22.7 4ZM24.2 18.1C24.2 18.9 23.5 19.6 22.7 19.6H22C21.1 19.6 20.3 20.4 20.3 21.3V24.1L16.7 20.5C16.2 20 15.4 19.7 14.7 19.7H7.5C6.7 19.7 6 19 6 18.2V7.5C6 6.7 6.7 6 7.5 6H22.7C23.5 6 24.2 6.7 24.2 7.5V18.1Z" fill="#fff"/>
</svg>
