<svg width="30" height="30" viewBox="0 0 30 30" fill="none" xmlns="http://www.w3.org/2000/svg">
<path d="M24.5018 23.4H5.90181C4.60181 23.4 3.60181 22.4 3.60181 21.1V19C3.60181 18.2 4.20181 17.6 4.90181 17.5C6.30181 17.3 7.30181 16.2 7.30181 14.8C7.30181 13.4 6.30181 12.2 4.90181 12C4.20181 12 3.60181 11.3 3.60181 10.6V8.5C3.60181 7.2 4.60181 6.2 5.90181 6.2H24.5018C25.8018 6.2 26.8018 7.2 26.8018 8.5V10.6C26.8018 11.4 26.2018 12 25.5018 12.1C24.1018 12.3 23.1018 13.4 23.1018 14.9C23.1018 16.3 24.1018 17.5 25.5018 17.6C26.3018 17.7 26.8018 18.3 26.8018 19.1V21.2C26.8018 22.3 25.8018 23.4 24.5018 23.4ZM5.60181 19.4V21C5.60181 21.2 5.70181 21.3 5.90181 21.3H24.5018C24.7018 21.3 24.8018 21.2 24.8018 21V19.4C22.6018 18.9 21.0018 17 21.0018 14.7C21.0018 12.4 22.6018 10.5 24.8018 10V8.5C24.8018 8.3 24.7018 8.2 24.5018 8.2H5.90181C5.70181 8.2 5.60181 8.3 5.60181 8.5V10.1C7.80181 10.6 9.40181 12.5 9.40181 14.8C9.40181 17.1 7.80181 19 5.60181 19.4Z" fill="#fff"/>
<path d="M18.3018 19.7C18.0018 19.7 17.8018 19.5 17.8018 19.2V10.4C17.8018 10.1 18.0018 9.9 18.3018 9.9C18.6018 9.9 18.8018 10.1 18.8018 10.4V19.2C18.8018 19.5 18.6018 19.7 18.3018 19.7Z" fill="#fff"/>
</svg>
