<svg width="31" height="31" viewBox="0 0 31 31" fill="none" xmlns="http://www.w3.org/2000/svg">
<path d="M23.9811 6.2H7.2225C5.25698 6.2 3.60181 7.87442 3.60181 9.86279V20.5372C3.60181 22.5256 5.25698 24.2 7.2225 24.2H23.9811C25.9466 24.2 27.6018 22.5256 27.6018 20.5372V9.86279C27.6018 7.87442 25.9466 6.2 23.9811 6.2ZM25.5328 20.5372C25.5328 21.3744 24.8087 22.107 23.9811 22.107H7.2225C6.39491 22.107 5.67077 21.3744 5.67077 20.5372V9.86279C5.67077 9.02558 6.39491 8.29302 7.2225 8.29302H23.9811C24.8087 8.29302 25.5328 9.02558 25.5328 9.86279V20.5372Z" fill="#fff"/>
<path d="M22.0156 10.2814L16.5328 15.0953C16.0156 15.6186 15.188 15.6186 14.6708 15.0953L9.18801 10.2814C8.67077 9.96744 8.05008 9.96744 7.73974 10.386C7.32594 10.8046 7.42939 11.4326 7.84319 11.8512L13.2225 16.6651C13.8432 17.293 14.7742 17.5023 15.6018 17.5023C16.4294 17.5023 17.257 17.1884 17.9811 16.6651L23.4639 11.8512C23.8777 11.4326 23.9811 10.8046 23.5673 10.386C23.1535 9.96744 22.5328 9.96744 22.0156 10.2814Z" fill="#fff"/>
</svg>
