<svg width="30" height="30" viewBox="0 0 30 30" fill="none" xmlns="http://www.w3.org/2000/svg">
<path d="M20.3 9.1H7.89999V11.1H20.3V9.1Z" fill="#fff"/>
<path d="M15 12.9H7.89999V14.9H15V12.9Z" fill="#fff"/>
<path d="M11.4 16.7H7.89999V18.7H11.4V16.7Z" fill="#fff"/>
<path d="M25.2 13.9V7.5C25.2 5.6 23.6 4 21.7 4H6.5C4.6 4 3 5.6 3 7.5V22.7C3 24.6 4.6 26.2 6.5 26.2H24.1C26 26.2 27.6 24.6 27.6 22.7V17.2C27.7 15.6 26.7 14.3 25.2 13.9ZM15.3 17.2V22.7C15.3 23.2 15.4 23.7 15.7 24.2H6.59999C5.79999 24.2 5.09999 23.5 5.09999 22.7V7.5C5.09999 6.7 5.79999 6 6.59999 6H21.8C22.6 6 23.3 6.7 23.3 7.5V13.7H18.9C16.8 13.7 15.3 15.3 15.3 17.2ZM24 20.7L20.8 22.6C20.3 22.9 19.7 22.5 19.7 22V18.2C19.7 17.6 20.3 17.3 20.8 17.6L24 19.5C24.5 19.7 24.5 20.4 24 20.7Z" fill="#fff"/>
</svg>
