<svg width="30" height="30" viewBox="0 0 30 30" fill="none" xmlns="http://www.w3.org/2000/svg">
<path d="M26.1 8.7C26.1 6.8 24.5 5.2 22.6 5.2H20.1C19.9 3.4 18.5 2 16.6 2H13.5C11.7 2 10.2 3.4 10 5.2H7.5C5.6 5.2 4 6.8 4 8.7C4 10.2 4.99999 11.5 6.29999 12V23.7C6.29999 25.6 7.89999 27.2 9.79999 27.2H20.3C22.2 27.2 23.8 25.6 23.8 23.7V12C25.2 11.5 26.1 10.2 26.1 8.7ZM13.6 4H16.7C17.4 4 18 4.5 18.2 5.2H12.1C12.2 4.6 12.8 4 13.6 4ZM20.3 25.2H9.89999C9.09999 25.2 8.39999 24.5 8.39999 23.7V12.2H21.8V23.7C21.8 24.6 21.1 25.2 20.3 25.2ZM22.6 10.2H7.59998C6.79998 10.2 6.09998 9.5 6.09998 8.7C6.09998 7.9 6.79998 7.2 7.59998 7.2H22.6C23.4 7.2 24.1 7.9 24.1 8.7C24.1 9.5 23.4 10.2 22.6 10.2Z" fill="#fff"/>
<path d="M12.1 15.1H11.1V22.1H12.1V15.1Z" fill="#fff"/>
<path d="M15.6 15.1H14.6V22.1H15.6V15.1Z" fill="#fff"/>
<path d="M19.1 15.1H18.1V22.1H19.1V15.1Z" fill="#fff"/>
</svg>
