<svg width="325" height="54" viewBox="0 0 325 54" fill="none" xmlns="http://www.w3.org/2000/svg">
<path d="M249.2 15.5H255.2L258.2 1.00002H240.3L229.8 53.4H247.7L254.3 20.1L249.2 15.5Z" fill="#BCD032"/>
<path d="M63.9 20.6L65.4 12.7C65.7 11.2 65.7 9.70002 65.3 8.30002C64.9 6.90002 64.3 5.70002 63.4 4.60002C62.5 3.50002 61.4 2.60002 60.1 2.00002C58.8 1.40002 57.3 1.00002 55.8 1.00002H23.2L20.3 15.5H20.2H48C48 15.6 48 15.6 48 15.6L47.4 18.9C47.4 19 47.3 19 47.3 19.1C47.3 19.1 47.3 19.1 47.2 19.1H24.3L20.3 15.5H7.6L0 53.4H53C55.3 53.4 57.4 52.7 59.2 51.2C61 49.8 62.1 47.8 62.5 45.5L64.9 33.6C65.1 32.4 65.1 31.2 64.8 30C64.5 29 64 27.9 63.3 27C62.7 26.3 62 25.6 61.1 25.1C62.5 24 63.5 22.4 63.9 20.6ZM47.3 32.2L46 38.7C46 38.8 46 38.8 45.9 38.8L45.8 38.9H21.6L22.7 33.3C22.8 32.6 23.5 32 24.3 32H47.3C47.3 32.1 47.3 32.1 47.3 32.2Z" fill="#BCD032"/>
<path d="M85.7 38.7L86.6 33.4C86.7 32.6 87.4 32.1 88.2 32.1H112.6L115 19.1H88.6L84.5 15.5H71.7L66.5 41.7C66.2 43.2 66.3 44.7 66.7 46.1C67.1 47.5 67.7 48.7 68.6 49.8C69.5 50.9 70.6 51.8 71.9 52.4C73.2 53 74.7 53.4 76.2 53.4H113.5L116.3 38.9C116.2 38.9 85.7 38.8 85.7 38.7Z" fill="#BCD032"/>
<path d="M172.3 1.00002H87.4L84.5 15.5H134L126.4 53.4H145.3L152 20.1L146.9 15.5H169.3L172.3 1.00002Z" fill="#BCD032"/>
<path d="M234.6 7.50002C234.2 6.30002 233.7 5.20002 232.9 4.20002C232.1 3.20002 231.1 2.40002 229.9 1.80002C228.7 1.20002 227.5 0.900024 226.1 0.900024H188.4L185.5 15.4H172.8L165.2 53.3H184L186.6 40.1C186.7 39.4 187.4 38.8 188.2 38.8H221.5C223.8 38.8 226.1 38.1 227.9 36.6C229.7 35.1 230.8 33.2 231.3 31L234.9 11.5C235.1 10.1 235 8.80002 234.6 7.50002ZM216.4 15.7L214.3 25.9C214.3 26 214.3 26 214.2 26H189.4L190.5 20.4L185.5 15.5H216.3C216.4 15.6 216.4 15.6 216.4 15.7Z" fill="#BCD032"/>
<path d="M300.3 28.6L296.7 23.3L296.4 22.9H305.3L324.7 1.00002H301.7L290.4 13.8L281.8 1.00002H260.1L278 27.9L255.4 53.4H278.4L287.9 42.7L295 53.4H316.7L300.3 28.6Z" fill="#BCD032"/>
</svg>
