<svg width="414" height="49" viewBox="0 0 414 49" fill="none" xmlns="http://www.w3.org/2000/svg">
<path d="M212.65 0.970001H228.12V47.84H212.65V0.970001Z" fill="#EBEEED"/>
<path d="M67.26 1H114.61L110.49 13.86H81.38L79.87 18.61H107L103.43 29.93H76.3L74.63 35.02H104.14L100.1 47.88H52.34L67.26 1Z" fill="#F4C041"/>
<path d="M129.89 14.26H113.54L117.75 1H168.99L164.79 14.26H148.45L137.74 47.88H119.18L129.89 14.26Z" fill="#F4C041"/>
<path d="M292.93 40.49L301.11 32.31C304.46 35.73 308.01 37.67 312.3 37.67C315.99 37.67 318.34 35.79 318.34 32.91V32.78C318.34 29.76 315.59 27.95 310.7 27.95H305.2L303.32 21.18L314.11 11.46H296.15V0.940002H330.07V10.26L318.87 19.84C325.58 21.32 331.01 25.07 331.01 33.05V33.18C331.01 42.7 323.36 48.8 312.91 48.8C303.86 48.8 297.49 45.51 292.93 40.49Z" fill="#F4C041"/>
<path fill-rule="evenodd" clip-rule="evenodd" d="M339.85 43.44C336.36 39.95 334.09 34.65 334.09 25.87V25.74C334.09 11.13 341.19 0 355.87 0C362.44 0 367 1.81 371.49 5.16L365.39 14.35C362.5 12.2 359.82 10.79 356.07 10.79C350.57 10.79 347.83 14.88 347.22 20.78C349.7 18.9 352.72 17.16 357.34 17.16C365.59 17.16 372.83 22.39 372.83 31.77V31.91C372.83 42.43 364.45 48.8 354.19 48.8C347.56 48.8 343.2 46.79 339.85 43.44ZM360.16 32.64V32.51C360.16 29.16 357.61 26.48 353.52 26.48C349.43 26.48 347.02 29.09 347.02 32.44V32.58C347.02 36 349.57 38.68 353.66 38.68C357.75 38.68 360.16 36.06 360.16 32.64Z" fill="#F4C041"/>
<path d="M374.97 41.36L382.41 32.64C386.23 35.86 389.85 37.74 393.8 37.74C398.09 37.74 400.71 35.59 400.71 32.24V32.11C400.71 28.76 397.89 26.68 393.8 26.68C390.92 26.68 388.51 27.68 386.3 29.02L378.59 24.73L379.93 0.940002H411.3V11.67H390.18L389.78 18.77C391.93 17.76 394.14 17.09 397.29 17.09C405.73 17.09 413.37 21.79 413.37 31.97V32.11C413.37 42.56 405.4 48.8 394 48.8C385.69 48.8 379.86 45.91 374.97 41.36Z" fill="#F4C041"/>
<path fill-rule="evenodd" clip-rule="evenodd" d="M210.32 17.48V17.61C210.32 28.66 200.25 34.48 186.45 34.48H178.83V47.88H170.82L163.44 38.08V1H187.24C201.28 1 210.32 7.1 210.32 17.48ZM194.93 18.08C194.93 14.06 191.6 11.92 186.05 11.92H178.83V24.31H186.13C191.6 24.31 194.93 21.9 194.93 18.21V18.08Z" fill="#EBEEED"/>
<path fill-rule="evenodd" clip-rule="evenodd" d="M44.29 24.37C49.52 25.51 53.33 28.79 53.33 33.61C53.33 41.52 45.88 47.88 26.84 47.88H8L0 37.24L11.53 1H36.12C53.17 1 57.3 6.29 57.3 12.05C57.3 17.74 52.78 22.5 44.29 24.37ZM34.61 32.01C34.61 30 32.63 29.06 28.66 29.06H20.65L18.43 36.02H27.39C31.91 36.02 34.61 34.35 34.61 32.01ZM39.21 15.6C39.21 13.66 37.47 12.86 33.5 12.86H25.81L23.74 19.42H32.31C37.07 19.42 39.21 17.61 39.21 15.6Z" fill="#F4C041"/>
<path d="M276.16 19.95C274.09 22.56 274.09 26.25 276.16 28.87L291.17 47.84H274.22L263.07 33.76L271.01 24.37L263.4 14.74L274.22 0.970001H291.17L276.16 19.95Z" fill="#EBEEED"/>
<path d="M266.73 24.41L259.01 33.27L249.54 45.12C248.18 46.83 246.11 47.83 243.93 47.83H231.89C231.67 47.83 231.48 47.71 231.39 47.52C231.3 47.33 231.32 47.1 231.46 46.93L246.19 28.48C248.28 25.87 248.29 22.15 246.21 19.53L232.23 1.88001C232.1 1.71001 232.07 1.49001 232.16 1.30001C232.26 1.11001 232.45 0.990005 232.66 0.990005H244.69C246.88 0.990005 248.96 1.99001 250.32 3.71001L261.36 17.65L266.73 24.41Z" fill="#EBEEED"/>
</svg>
