<svg width="30" height="30" viewBox="0 0 30 30" fill="none" xmlns="http://www.w3.org/2000/svg">
<path d="M27.8 7.7C27.4 7.2 26.8 6.9 26.2 6.9H7.3L6.9 5.3C6.6 4 5.4 3 4 3H2.1C1.5 3 1 3.5 1 4.1C1 4.7 1.5 5.2 2.1 5.2H4C4.4 5.2 4.7 5.4 4.7 5.8L5.4 8.3C5.4 8.3 5.4 8.3 5.4 8.4L8.1 19.1C8.2 19.6 8.7 19.9 9.2 19.9H21.9C24 19.9 25.9 18.5 26.4 16.4L28.1 9.6C28.3 8.9 28.2 8.3 27.8 7.7ZM24.3 15.8C24 16.9 23 17.7 21.9 17.7H10.1L7.9 9.2H26L24.3 15.8Z" fill="#fff"/>
<path d="M11.3 27.1C12.7912 27.1 14 25.8912 14 24.4C14 22.9088 12.7912 21.7 11.3 21.7C9.80883 21.7 8.6 22.9088 8.6 24.4C8.6 25.8912 9.80883 27.1 11.3 27.1Z" fill="#fff"/>
<path d="M20.6 27.1C22.0912 27.1 23.3 25.8912 23.3 24.4C23.3 22.9088 22.0912 21.7 20.6 21.7C19.1088 21.7 17.9 22.9088 17.9 24.4C17.9 25.8912 19.1088 27.1 20.6 27.1Z" fill="#fff"/>
</svg>
