<svg width="30" height="30" viewBox="0 0 30 30" fill="none" xmlns="http://www.w3.org/2000/svg">
<path d="M14.8 4.2C10 4.2 6 8.2 6 13V14.8V17.7V20.6C6 21.2 6.4 21.6 7 21.6H10.3C10.9 21.6 11.3 21.2 11.3 20.6V14.8C11.3 14.2 10.9 13.8 10.3 13.8H8V13C8 9.3 11.1 6.2 14.8 6.2C18.5 6.2 21.6 9.3 21.6 13V13.8H19.3C18.7 13.8 18.3 14.2 18.3 14.8V20.6C18.3 21.2 18.7 21.6 19.3 21.6H21.6V22.3C21.6 22.9 21.1 23.3 20.6 23.3H17C16.9 22.9 16.6 22.7 16.2 22.7H13.4C12.9 22.7 12.5 23.1 12.5 23.6V25.1C12.5 25.6 12.9 26 13.4 26H16.2C16.6 26 16.9 25.7 17 25.4H20.6C22.3 25.4 23.6 24 23.6 22.4V20.7V14.9V13C23.7 8.2 19.7 4.2 14.8 4.2Z" fill="#fff"/>
</svg>
