<svg width="30" height="30" viewBox="0 0 30 30" fill="none" xmlns="http://www.w3.org/2000/svg">
<path d="M23 3H11.1C9.19998 3 7.59998 4.6 7.59998 6.5V7.1H6.5C5.1 7.1 4 8.2 4 9.6V24.8C4 26.2 5.1 27.3 6.5 27.3H18.4C19.7 27.3 20.7 26.4 20.9 25.2H23C24.9 25.2 26.5 23.6 26.5 21.7V6.5C26.5 4.6 24.9 3 23 3ZM24.5 21.7C24.5 22.5 23.8 23.2 23 23.2H11.1C10.3 23.2 9.59998 22.5 9.59998 21.7V6.5C9.59998 5.7 10.3 5 11.1 5H23C23.8 5 24.5 5.7 24.5 6.5V21.7Z" fill="#fff"/>
<path d="M21.7 8.1H12.5V10.1H21.7V8.1Z" fill="#fff"/>
<path d="M21.7 11.9H12.5V13.9H21.7V11.9Z" fill="#fff"/>
<path d="M17.3 15.7H12.5V17.7H17.3V15.7Z" fill="#fff"/>
</svg>
