<svg width="30" height="31" viewBox="0 0 30 31" fill="none" xmlns="http://www.w3.org/2000/svg">
<path d="M13.3444 6.6L4.8444 14.4C4.5444 14.7 4.7444 15.1 5.1444 15.1H7.04439V22.9C7.04439 23.6 7.6444 24.2 8.3444 24.2H12.4444C12.7444 24.2 13.0444 23.9 13.0444 23.6V20.1C13.0444 19 13.9444 18.1 15.0444 18.1C16.1444 18.1 17.0444 19 17.0444 20.1V23.6C17.0444 23.9 17.3444 24.2 17.6444 24.2H21.7444C22.4444 24.2 23.0444 23.6 23.0444 22.9V15.1H24.9444C25.3444 15.1 25.5444 14.6 25.2444 14.4L16.4444 6.6C15.6444 5.8 14.2444 5.8 13.3444 6.6Z" fill="#fff"/>
</svg>
