<svg width="30" height="30" viewBox="0 0 30 30" fill="none" xmlns="http://www.w3.org/2000/svg">
<path d="M14.9829 8.55025C12.6792 8.55025 10.7594 10.4139 10.7594 12.6502C10.7594 14.8865 12.6792 16.7501 14.9829 16.7501C17.2866 16.7501 19.2064 14.8865 19.2064 12.6502C19.2064 10.4139 17.2866 8.55025 14.9829 8.55025ZM14.9829 14.8865C13.735 14.8865 12.6792 13.8615 12.6792 12.6502C12.6792 11.4388 13.735 10.4139 14.9829 10.4139C16.2308 10.4139 17.2866 11.4388 17.2866 12.6502C17.2866 13.8615 16.2308 14.8865 14.9829 14.8865Z" fill="#fff"/>
<path d="M24.9658 11.9048C24.5818 7.3389 20.8383 3.61168 16.2308 3.0526C13.3511 2.77306 10.4714 3.61168 8.35963 5.47529C6.24786 7.3389 5 9.94796 5 12.7434C5 17.0297 7.7837 20.7569 12.0072 21.9683C12.1992 22.0614 12.2952 22.1546 12.2952 22.341V24.3909C12.2952 25.1364 12.6792 25.8818 13.2551 26.3477C13.735 26.7205 14.311 27 14.9829 27C15.0789 27 15.2709 27 15.3669 27C16.6147 26.8136 17.5746 25.6955 17.5746 24.3909V22.4342C17.5746 22.2478 17.6706 22.0614 17.8626 22.0614C22.4701 20.5705 25.3498 16.4706 24.9658 11.9048ZM17.3826 20.1046C16.4227 20.3842 15.7508 21.316 15.7508 22.341V24.2978C15.7508 24.6705 15.4628 25.0432 15.1749 25.0432C14.8869 25.1364 14.6949 24.95 14.5989 24.8568C14.407 24.7637 14.311 24.4841 14.311 24.2978V22.2478C14.311 21.2228 13.639 20.3842 12.6792 20.1046C9.31952 19.0797 7.01578 16.0979 7.01578 12.6502C7.01578 10.4139 7.97567 8.27071 9.70348 6.77982C11.2393 5.47529 13.0631 4.82303 15.0789 4.82303C15.3669 4.82303 15.7508 4.82303 16.0388 4.91621C19.7824 5.38211 22.854 8.45707 23.142 12.0911C23.334 15.7252 21.0302 19.0797 17.3826 20.1046Z" fill="#fff"/>
</svg>
