<svg width="606" height="126" viewBox="0 0 606 126" fill="none" xmlns="http://www.w3.org/2000/svg">
<path d="M69.8112 0C108.782 0 134.042 23.6103 134.042 62.9775C134.042 104.764 107.381 125.954 66.9437 125.954C42.7087 125.954 23.4531 118.281 11.9285 103.136L11.9021 103.101C11.6473 102.766 11.3956 102.427 11.1484 102.084L11.1039 102.022C10.1665 100.719 9.28507 99.3627 8.46 97.9536C8.38253 97.8217 8.30359 97.6905 8.22719 97.5579C8.09426 97.3259 7.96413 97.091 7.83453 96.8555C7.72907 96.6658 7.62334 96.4765 7.52014 96.2853C7.40334 96.0688 7.2892 95.8498 7.17507 95.631C7.0632 95.4149 6.95054 95.1986 6.84094 94.9809C6.73628 94.773 6.63266 94.5649 6.53066 94.3555C6.41453 94.1169 6.29973 93.8777 6.18626 93.6366C6.09373 93.4401 6.00146 93.2438 5.91119 93.0454C5.79053 92.7813 5.67227 92.5141 5.55507 92.2469C5.47574 92.0646 5.3948 91.8833 5.31667 91.6995C5.18054 91.3798 5.04826 91.057 4.91746 90.7332C4.86386 90.5993 4.80788 90.4683 4.75494 90.3344C4.38081 89.3911 4.02853 88.428 3.69706 87.4469C3.66493 87.3512 3.63479 87.2541 3.60293 87.1585C3.47253 86.7639 3.34373 86.3678 3.21973 85.9679C3.17666 85.8289 3.13587 85.6894 3.09387 85.55C2.98547 85.1905 2.8784 84.8292 2.77533 84.4648C2.72986 84.3057 2.68613 84.1459 2.64187 83.9856C2.5444 83.6303 2.44947 83.2735 2.35693 82.9137C2.31533 82.7527 2.27454 82.5913 2.23401 82.4296C2.14254 82.0615 2.05414 81.6902 1.96761 81.3171C1.93201 81.1634 1.89613 81.01 1.86133 80.8551C1.77333 80.46 1.68866 80.0613 1.60626 79.6606C1.57826 79.5242 1.5488 79.3885 1.5212 79.2517C1.42067 78.7501 1.32627 78.2437 1.23547 77.7342L1.21814 77.6397C1.11947 77.0796 1.02653 76.5143 0.939596 75.9443C0.930262 75.8796 0.921474 75.8139 0.912008 75.7492C0.839341 75.2636 0.770667 74.7752 0.706401 74.2832C0.684401 74.1139 0.664395 73.9419 0.643595 73.7721C0.595195 73.3764 0.547604 72.981 0.504537 72.5811C0.482937 72.3827 0.462932 72.1829 0.442932 71.9829C0.405465 71.6106 0.369603 71.2372 0.33667 70.8616C0.31787 70.6416 0.299734 70.4212 0.282267 70.2001C0.253601 69.8392 0.227075 69.4764 0.202942 69.1116C0.187875 68.8792 0.172264 68.6468 0.158264 68.4124C0.136798 68.0436 0.11867 67.672 0.101603 67.2997C0.0909365 67.0752 0.0797319 66.8522 0.0710653 66.6269C0.0558653 66.2274 0.0445368 65.8245 0.0344035 65.4213C0.0290702 65.2153 0.0224076 65.0105 0.0177409 64.8033C0.00574089 64.1997 0 63.5909 0 62.9775V58.2905H0.123861C1.14746 38.9975 8.5364 23.8333 20.7855 13.8137V22.9998V62.6497L20.7863 62.7419L20.7855 62.9775C20.7855 63.3872 20.7895 63.7938 20.7961 64.1974C20.7988 64.3249 20.8015 64.4514 20.8041 64.5788C20.8108 64.8529 20.8161 65.1269 20.8253 65.3983L20.8412 65.843C20.8519 66.1001 20.8623 66.3563 20.8752 66.611L20.8971 67.0321C20.9125 67.3084 20.9296 67.5821 20.9485 67.8557L20.9716 68.1936C20.9976 68.556 21.0271 68.915 21.0592 69.2718L21.0659 69.3398C21.1009 69.7224 21.1399 70.1008 21.1815 70.4768C21.1921 70.5763 21.2045 70.6737 21.2163 70.7724C21.2484 71.046 21.2805 71.3185 21.316 71.5888C21.3319 71.7101 21.3485 71.8306 21.3652 71.9512C21.3996 72.2017 21.4351 72.4507 21.4725 72.6991L21.528 73.0589C21.5688 73.316 21.6112 73.5718 21.6555 73.8258C21.6728 73.9274 21.6899 74.0296 21.708 74.1312C21.7624 74.4381 21.8201 74.742 21.8803 75.0443L21.9075 75.1861C21.9779 75.5376 22.0523 75.8853 22.1297 76.2304C22.1464 76.3041 22.1641 76.3774 22.1812 76.4506C22.2408 76.7114 22.3013 76.9708 22.3652 77.2275C22.3955 77.3488 22.4264 77.4681 22.4571 77.5884C22.5119 77.8014 22.5675 78.0136 22.6248 78.2244C22.6585 78.3484 22.6925 78.4723 22.7269 78.5955C22.7851 78.8011 22.8441 79.0049 22.9049 79.2083C22.942 79.3333 22.9791 79.4588 23.0168 79.5828C23.0811 79.791 23.1472 79.9966 23.2141 80.2026C23.25 80.313 23.2848 80.4245 23.3215 80.5345C23.4197 80.8312 23.5221 81.1241 23.6264 81.4152C23.6779 81.5572 23.7319 81.6975 23.7844 81.8381C23.8433 81.9945 23.9016 82.1525 23.9617 82.3079C24.0229 82.4655 24.0856 82.6212 24.1488 82.7765C24.2036 82.9125 24.2588 83.0478 24.3151 83.1828C24.3843 83.3488 24.4541 83.5134 24.5256 83.6772C24.5744 83.789 24.6235 83.8997 24.6727 84.0101C24.7551 84.193 24.8371 84.3756 24.9213 84.5562L25.0169 84.7567C29.9881 95.2225 39.3584 101.643 53.2323 104.065V104.079C57.3984 104.804 61.9667 105.168 66.944 105.168C98.0423 105.168 113.256 91.2072 113.256 62.9775L113.255 62.8164L113.256 62.6497C113.256 41.8109 104.282 28.1929 87.5424 22.9213C74.6561 18.8632 58.7737 20.5223 45.5912 22.45L32.7253 6.37679C38.3595 3.76772 44.6183 1.92864 51.4268 0.918777V0.883133C57.5451 0.0622025 63.6517 0 69.8112 0Z" fill="white"/>
<path d="M77.5006 81.9149L89.5611 97.2178V81.8143V62.4847C89.5611 48.7223 82.1351 41.9164 67.0582 41.9164C51.8977 41.9164 44.4805 48.7223 44.4805 62.4847C44.4805 82.8064 61.6575 85.2087 77.5006 81.9149Z" fill="#CAFF17"/>
<path d="M435.563 87.4244C423.118 87.4244 417.668 82.2416 417.668 70.6959C417.668 59.1487 423.118 53.9519 435.563 53.9519C448.149 53.9519 453.599 59.1487 453.599 70.6959C453.599 82.2416 448.149 87.4244 435.563 87.4244ZM437.909 36.1831C430.454 36.1831 423.618 38.0034 419.266 41.1071L412.441 20.7456H404.436H397.806V38.2619V70.6959C397.806 93.7873 410.266 105.208 435.563 105.208C461.001 105.208 473.447 93.7873 473.447 70.6959C473.447 48.3759 460.861 36.1831 437.909 36.1831Z" fill="white"/>
<path d="M189.897 87.4244C177.312 87.4244 171.861 82.3683 171.861 70.6955C171.861 59.0084 177.312 53.9519 189.897 53.9519C202.483 53.9519 207.919 59.0084 207.919 70.6955C207.919 82.3683 202.483 87.4244 189.897 87.4244ZM189.897 36.1831C164.459 36.1831 152 47.4624 152 70.6955C152 93.9143 164.459 105.208 189.897 105.208C215.321 105.208 227.78 93.9143 227.78 70.6955C227.78 47.4624 215.321 36.1831 189.897 36.1831Z" fill="#CAFF17"/>
<path d="M273.446 87.4244C261.001 87.4244 255.55 82.2416 255.55 70.6959C255.55 59.1487 261.001 53.9519 273.446 53.9519C286.031 53.9519 291.482 59.1487 291.482 70.6959C291.482 82.2416 286.031 87.4244 273.446 87.4244ZM275.791 36.1831C268.337 36.1831 261.501 38.0034 257.148 41.1071L250.324 20.7456H242.319H235.689V38.2619V70.6959C235.689 93.7873 248.148 105.208 273.446 105.208C298.884 105.208 311.329 93.7873 311.329 70.6959C311.329 48.3759 298.743 36.1831 275.791 36.1831Z" fill="#CAFF17"/>
<path d="M369.327 75.3588C369.327 85.4864 362.711 90.6697 349.747 90.6697C341.178 90.6697 336.641 87.818 336.641 82.4941C336.641 78.8704 339.099 76.7916 344.17 76.3985L363.624 74.9793C366.869 74.7125 368.302 74.3194 369.327 73.5469V75.3588ZM354.03 36.1832C331.065 36.1832 319.897 43.5719 318.998 59.0085H338.846C339.886 53.8257 344.03 51.4937 354.55 51.4937C364.916 51.4937 369.327 54.0785 369.327 60.0483C369.327 62.7733 368.428 63.5598 365.436 63.8127L341.571 65.498C322.369 67.0574 316.793 72.2547 316.793 83.9273C316.793 96.6395 327.427 105.208 345.982 105.208C360.127 105.208 368.948 100.923 370.634 93.3944L374.468 99.6733L377.109 103.986L389.189 103.129V62.127C389.189 44.2177 378.163 36.1832 354.03 36.1832Z" fill="#CAFF17"/>
<path d="M499.398 62.7733C500.831 53.8257 506.66 49.5409 517.56 49.5409C527.94 49.5409 533.657 53.8257 534.949 62.7733H499.398ZM517.56 36.1829C491.869 36.1829 479.157 47.6026 479.157 70.6952C479.157 93.6616 492.529 105.208 518.599 105.208C536.762 105.208 548.969 97.426 553.758 82.8876H534.037C532.225 88.0709 526.002 91.1893 517.56 91.1893C506.281 91.1893 499.665 85.4861 499.005 75.3588H554.545C554.797 73.6732 554.938 71.8612 554.938 69.3891C554.938 47.3359 542.338 36.1829 517.56 36.1829Z" fill="white"/>
<path d="M580.123 75.2325V56.031H605.042L598.528 38.2624H580.123L573.829 20.7461H560.401V75.2325C560.401 94.3074 567.678 103.129 588.298 103.129H605.042V85.3605H590.503C582.722 85.3605 580.123 82.7614 580.123 75.2325Z" fill="white"/>
</svg>
