<svg width="30" height="30" viewBox="0 0 30 30" fill="none" xmlns="http://www.w3.org/2000/svg">
<path d="M15.1277 21.6591C15.1277 22.4227 14.383 23.0909 13.5319 23.0909H6.72341C5.87234 23.0909 5.12766 22.4227 5.12766 21.6591V7.34091C5.12766 6.57727 5.87234 5.90909 6.72341 5.90909H13.5319C14.383 5.90909 15.1277 6.57727 15.1277 7.34091V8.96364H17.2553V7.34091C17.2553 5.52727 15.5532 4 13.5319 4H6.72341C4.70213 4 3 5.52727 3 7.34091V21.6591C3 23.4727 4.70213 25 6.72341 25H13.5319C15.5532 25 17.2553 23.4727 17.2553 21.6591V19.9409H15.1277V21.6591Z" fill="#fff"/>
<path d="M27.6809 13.8318L21.1915 9.05909C20.9787 8.86818 20.5532 9.05909 20.5532 9.34545V10.8727C20.5532 11.2545 20.234 11.5409 19.8085 11.5409H10.6596C10.234 11.5409 9.9149 11.8273 9.9149 12.2091V17.3636C9.9149 17.7455 10.234 18.0318 10.6596 18.0318H19.8085C20.234 18.0318 20.5532 18.3182 20.5532 18.7V19.75C20.5532 20.0364 20.9787 20.2273 21.1915 20.0364L27.6809 15.2636C28.1064 14.7864 28.1064 14.1182 27.6809 13.8318Z" fill="#fff"/>
</svg>
