<svg width="95" height="24" viewBox="0 0 95 24" fill="none" xmlns="http://www.w3.org/2000/svg">
<path fill-rule="evenodd" clip-rule="evenodd" d="M39.9684 18.9C39.9684 19.524 39.4727 19.7202 39.2426 19.7202H36.8707V4.26202H39.2426C39.7028 4.26202 39.9153 4.74341 39.9507 5.01085V18.9H39.9684ZM39.6674 0.5H33.1536V23.5H39.6674C42.3049 23.5 43.597 22.2341 43.597 19.6132V4.35116C43.597 1.78372 42.2695 0.5 39.6674 0.5Z" fill="#FDC517"/>
<path fill-rule="evenodd" clip-rule="evenodd" d="M85.7956 0.5L83.4237 4.22636H87.548V23.5H91.4245V4.22636H95V0.5H85.7956Z" fill="#FDC517"/>
<path fill-rule="evenodd" clip-rule="evenodd" d="M26.5866 3.69147L26.799 3.83411L26.5157 3.86977V23.5H30.3922V0.5H28.5867L26.5866 3.69147Z" fill="#FDC517"/>
<path fill-rule="evenodd" clip-rule="evenodd" d="M50.2701 13.355H52.5889L54.9431 9.59302H50.2701V4.22636H54.7838L57.138 0.5H48.4647L46.3937 3.74496V23.5H54.7838L57.138 19.738H50.2701V13.355Z" fill="#FDC517"/>
<path fill-rule="evenodd" clip-rule="evenodd" d="M75.4938 13.355H77.8126L80.1668 9.59302H75.4938V4.22636H80.0075L82.3617 0.5H73.6883L71.6173 3.74496V23.5H80.0075L82.3617 19.738H75.4938V13.355Z" fill="#FDC517"/>
<path fill-rule="evenodd" clip-rule="evenodd" d="M6.58468 16.5822L3.87647 12.8202V0.5H0V14.1752L6.76169 23.5H10.4435V0.5H6.58468V16.5822Z" fill="#FDC517"/>
<path fill-rule="evenodd" clip-rule="evenodd" d="M64.891 14.5318V18.9178C64.891 19.3636 64.5193 19.738 64.0768 19.738H62.2359V18.7217L64.891 14.5496V14.5318ZM62.2359 11.9822V4.26202H64.0768C64.5193 4.26202 64.891 4.63643 64.891 5.08217V7.81008L62.2359 11.9822ZM68.8029 3.95891C68.8029 2.05116 67.2452 0.5 65.3512 0.5H60.4127L58.3417 3.78062V23.5H65.3512C67.2452 23.5 68.8029 21.9488 68.8029 20.0411V13.3015C68.8029 12.3744 68.3427 11.5008 67.5992 10.9837L67.5461 10.9481L68.8206 8.9155V3.95891H68.8029Z" fill="#FDC517"/>
<path fill-rule="evenodd" clip-rule="evenodd" d="M19.9134 11.162V12.0357H17.2051V7.41783L19.9134 11.162ZM13.3464 0.5V23.5H17.2228V15.9403H19.9311V23.5H23.8075V9.82481L17.0458 0.5H13.3464Z" fill="#FDC517"/>
</svg>
