<svg width="27" height="27" viewBox="0 0 27 27" fill="none" xmlns="http://www.w3.org/2000/svg">
<path d="M13.5 0C6.048 0 0 6.048 0 13.5C0 20.952 6.048 27 13.5 27C20.925 27 27 20.952 27 13.5C27 6.048 20.925 0 13.5 0ZM22.41 6.21C24.03 8.181 24.975 10.665 25.029 13.392C24.651 13.311 20.844 12.555 17.01 13.014C16.929 12.825 16.848 12.609 16.767 12.42C16.524 11.853 16.281 11.286 16.011 10.746C20.223 9.045 22.167 6.534 22.41 6.21ZM13.5 1.998C16.416 1.998 19.116 3.105 21.141 4.887C20.925 5.184 19.197 7.506 15.093 9.045C13.203 5.562 11.097 2.727 10.8 2.295C11.664 2.106 12.555 1.998 13.5 1.998ZM8.586 3.078C8.883 3.483 10.935 6.345 12.852 9.747C7.452 11.178 2.7 11.151 2.187 11.151C2.97 7.56 5.373 4.59 8.586 3.078ZM1.971 13.527C1.971 13.419 1.971 13.284 1.971 13.176C2.457 13.203 8.073 13.257 13.824 11.529C14.148 12.177 14.472 12.825 14.769 13.5C14.634 13.554 14.472 13.581 14.31 13.635C8.37 15.552 5.211 20.79 4.941 21.222C3.078 19.17 1.971 16.47 1.971 13.527ZM13.5 25.029C10.827 25.029 8.37 24.111 6.426 22.599C6.642 22.167 8.964 17.658 15.471 15.39C15.498 15.363 15.525 15.363 15.552 15.363C17.172 19.575 17.847 23.085 18.009 24.111C16.632 24.705 15.093 25.029 13.5 25.029ZM19.926 23.058C19.818 22.356 19.197 18.981 17.685 14.85C21.303 14.283 24.462 15.228 24.867 15.336C24.354 18.549 22.518 21.33 19.926 23.058Z" fill="black"/>
</svg>
