<svg width="27" height="27" viewBox="0 0 27 27" fill="none" xmlns="http://www.w3.org/2000/svg">
<path d="M13.4636 2.42654C17.0606 2.42654 17.4829 2.44258 18.9046 2.50672C20.2194 2.56551 20.9303 2.78465 21.406 2.97171C22.0367 3.21758 22.4856 3.5062 22.956 3.97654C23.4263 4.44688 23.7203 4.89585 23.9608 5.52653C24.1425 6.00222 24.367 6.71308 24.4258 8.0279C24.4899 9.44962 24.506 9.87186 24.506 13.4689C24.506 17.066 24.4899 17.4882 24.4258 18.9099C24.367 20.2248 24.1479 20.9356 23.9608 21.4113C23.7149 22.042 23.4263 22.491 22.956 22.9613C22.4856 23.4316 22.0367 23.7256 21.406 23.9661C20.9303 24.1479 20.2194 24.3723 18.9046 24.4311C17.4829 24.4953 17.0606 24.5113 13.4636 24.5113C9.86652 24.5113 9.44428 24.4953 8.02256 24.4311C6.70774 24.3723 5.99688 24.1532 5.52119 23.9661C4.8905 23.7203 4.44154 23.4316 3.97119 22.9613C3.50085 22.491 3.20689 22.042 2.96637 21.4113C2.78465 20.9356 2.56016 20.2248 2.50137 18.9099C2.43723 17.4882 2.4212 17.066 2.4212 13.4689C2.4212 9.87186 2.43723 9.44962 2.50137 8.0279C2.56016 6.71308 2.7793 6.00222 2.96637 5.52653C3.21223 4.89585 3.50085 4.44688 3.97119 3.97654C4.44154 3.5062 4.8905 3.21223 5.52119 2.97171C5.99688 2.78999 6.70774 2.56551 8.02256 2.50672C9.44428 2.43723 9.87186 2.42654 13.4636 2.42654ZM13.4636 0C9.80773 0 9.34807 0.0160344 7.91032 0.0801721C6.47791 0.14431 5.49981 0.374137 4.64464 0.705515C3.7574 1.04758 3.00913 1.51258 2.26085 2.26085C1.51258 3.00913 1.05293 3.76275 0.705515 4.64464C0.374137 5.49981 0.14431 6.47791 0.0801722 7.91566C0.0160344 9.34807 0 9.80772 0 13.4636C0 17.1194 0.0160344 17.5791 0.0801722 19.0168C0.14431 20.4492 0.374137 21.4273 0.705515 22.2879C1.04758 23.1751 1.51258 23.9234 2.26085 24.6716C3.00913 25.4199 3.76275 25.8796 4.64464 26.227C5.49981 26.5584 6.47791 26.7882 7.91566 26.8523C9.35342 26.9165 9.80773 26.9325 13.4689 26.9325C17.1301 26.9325 17.5844 26.9165 19.0222 26.8523C20.4546 26.7882 21.4327 26.5584 22.2932 26.227C23.1804 25.8849 23.9287 25.4199 24.677 24.6716C25.4253 23.9234 25.8849 23.1698 26.2323 22.2879C26.5637 21.4327 26.7935 20.4546 26.8577 19.0168C26.9218 17.5791 26.9378 17.1248 26.9378 13.4636C26.9378 9.80238 26.9218 9.34807 26.8577 7.91032C26.7935 6.47791 26.5637 5.49981 26.2323 4.6393C25.8903 3.75206 25.4253 3.00378 24.677 2.25551C23.9287 1.50724 23.1751 1.04758 22.2932 0.70017C21.438 0.368792 20.4599 0.138965 19.0222 0.0748273C17.5791 0.0160344 17.1194 0 13.4636 0Z" fill="black"/>
<path d="M13.4636 6.55273C9.64738 6.55273 6.54739 9.64738 6.54739 13.4689C6.54739 17.2905 9.64204 20.3851 13.4636 20.3851C17.2851 20.3851 20.3798 17.2905 20.3798 13.4689C20.3798 9.64738 17.2851 6.55273 13.4636 6.55273ZM13.4636 17.9532C10.9836 17.9532 8.97394 15.9436 8.97394 13.4636C8.97394 10.9836 10.9836 8.97393 13.4636 8.97393C15.9436 8.97393 17.9532 10.9836 17.9532 13.4636C17.9532 15.9436 15.9436 17.9532 13.4636 17.9532Z" fill="black"/>
<path d="M20.6523 7.88894C21.5438 7.88894 22.2665 7.16627 22.2665 6.27481C22.2665 5.38335 21.5438 4.66068 20.6523 4.66068C19.7609 4.66068 19.0382 5.38335 19.0382 6.27481C19.0382 7.16627 19.7609 7.88894 20.6523 7.88894Z" fill="black"/>
</svg>
