<svg width="27" height="27" viewBox="0 0 27 27" fill="none" xmlns="http://www.w3.org/2000/svg">
<path d="M24.2827 0H2.71728C1.22513 0 0 1.21034 0 2.7V24.3C0 25.7897 1.22513 27 2.71728 27H24.2827C25.7906 27 27 25.7897 27 24.3V2.7C27 1.21034 25.7906 0 24.2827 0ZM8.67016 21.3672H5.02618V9.8069H8.65445V21.3672H8.67016ZM6.83246 8.39483C5.68586 8.39483 4.94764 7.58793 4.94764 6.59483C4.93194 5.58621 5.70157 4.81034 6.87958 4.81034C8.05759 4.81034 8.7644 5.58621 8.79581 6.61034C8.78011 7.58793 8.04189 8.39483 6.83246 8.39483ZM21.9267 21.3672H18.2984V14.9586C18.2984 13.469 17.7801 12.4603 16.4607 12.4603C15.4555 12.4603 14.8586 13.1431 14.5916 13.8103C14.4974 14.0431 14.466 14.369 14.466 14.7103V21.3672H10.8377V13.5C10.8377 12.0569 10.7906 10.8621 10.7435 9.82241H13.9005L14.0733 11.4362H14.1361C14.6073 10.6759 15.7853 9.57414 17.7487 9.57414C20.1361 9.57414 21.9267 11.1569 21.9267 14.5552V21.3672Z" fill="black"/>
</svg>
